<svg xmlns="http://www.w3.org/2000/svg" viewBox="0 0 364 364">
  <g fill-rule="evenodd" clip-rule="evenodd">
    <path d="M244.424 83.438H119.577c-19.925 0-36.139 16.213-36.139 36.139v124.846c0 19.929 16.214 36.143 36.139 36.143h124.847c19.928 0 36.142-16.214 36.142-36.143V119.577c0-19.925-16.214-36.139-36.142-36.139zm-62.426 163.456c-35.779 0-64.892-29.113-64.892-64.896 0-35.779 29.113-64.892 64.892-64.892 35.783 0 64.896 29.113 64.896 64.892 0 35.783-29.113 64.896-64.896 64.896zm66.984-116.369c-8.471 0-15.359-6.888-15.359-15.354 0-8.467 6.888-15.355 15.359-15.355 8.466 0 15.354 6.888 15.354 15.355s-6.888 15.354-15.354 15.354z"/>
    <path d="M181.998 144.531c-20.655 0-37.475 16.812-37.475 37.467 0 20.663 16.82 37.479 37.475 37.479 20.663 0 37.471-16.816 37.471-37.479 0-20.655-16.808-37.467-37.471-37.467z"/>
    <path d="M0 0v364h364V0H0zm307.984 244.423c0 35.053-28.508 63.561-63.56 63.561H119.577c-35.049 0-63.561-28.508-63.561-63.561V119.577c0-35.049 28.512-63.561 63.561-63.561h124.847c35.052 0 63.56 28.512 63.56 63.561v124.846z"/>
  </g>
</svg>
