<svg xmlns="http://www.w3.org/2000/svg" width="1122.52" height="141.089" viewBox="0 0 1122.52 141.089" fill="#FDD403"><defs><clipPath id="a" clipPathUnits="userSpaceOnUse"><path d="M0 105.817h841.89V0H0z"/></clipPath></defs><path d="M135.31 94.861L107.9 51.536h18.432l17.115 27.766 17.113-27.766h18.432L150.868 94.86v36.503h-15.559zM227.046 101.922L215.676 73.2l-11.368 28.722zm4.55 12.686H199.4l-7.061 16.756h-16.876l34.348-79.828h12.208l33.39 79.828h-16.754zM266.02 131.364V51.536h10.77l48.591 53.258V51.536h15.56v79.828h-10.773l-48.59-53.378v53.378z"/><g clip-path="url(#a)" transform="matrix(1.33333 0 0 -1.33333 0 141.09)"><path d="M338.518 24.26c1.885 2.512 3.95 6.282 3.95 12.925 0 12.117-8.259 20.734-19.928 20.734s-19.926-8.617-19.926-20.734c0-12.028 8.168-20.645 20.196-20.645 4.04 0 6.731.897 8.886 1.974l-12.208 11.85 12.118.986zm1.077-14.004c-5.296-3.142-10.412-4.309-17.055-4.309-18.85 0-31.955 12.926-31.955 31.238 0 18.221 13.105 31.326 31.955 31.326 18.85 0 31.956-13.105 31.956-31.326 0-11.22-4.668-17.683-7.9-21.274l9.694-9.784-11.758-1.167zM398.56 29.375l-8.527 21.542-8.528-21.542zm3.411-9.514h-24.145L372.53 7.294h-12.657l25.761 59.871h9.156l25.043-59.87h-12.566zM443.613 17.348h27.646V7.294h-47.035l29.083 49.817h-24.506v10.053h43.894zM515.774 29.375l-8.526 21.542-8.528-21.542zm3.411-9.514H495.04l-5.296-12.567h-12.657l25.761 59.871h9.156l25.043-59.87h-12.566zM589.463 24.26c1.885 2.512 3.949 6.282 3.949 12.925 0 12.117-8.258 20.734-19.927 20.734-11.668 0-19.926-8.617-19.926-20.734 0-12.028 8.168-20.645 20.195-20.645 4.04 0 6.732.897 8.887 1.974l-12.207 11.85 12.117.986zm1.077-14.004c-5.296-3.142-10.412-4.309-17.055-4.309-18.85 0-31.955 12.926-31.955 31.238 0 18.221 13.105 31.326 31.955 31.326 18.85 0 31.956-13.105 31.956-31.326 0-11.22-4.668-17.683-7.9-21.274l9.694-9.784-11.758-1.167zM647.889 53.521c-3.501 4.667-7.63 5.117-9.784 5.117-6.284 0-8.26-3.95-8.26-7.002 0-1.436.45-2.782 1.886-4.039 1.436-1.347 3.41-2.065 7.18-3.41 4.669-1.617 9.067-3.232 12.119-6.015 2.693-2.423 5.116-6.463 5.116-12.567 0-11.668-8.437-19.658-20.824-19.658-11.04 0-17.503 6.733-20.645 11.311l7.63 7.27c2.872-5.834 8.348-7.988 12.565-7.988 5.296 0 9.246 3.231 9.246 8.257 0 2.155-.717 3.86-2.333 5.386-2.245 2.065-5.834 3.232-9.247 4.4-3.14 1.076-6.911 2.512-9.962 5.205-1.975 1.705-4.757 5.026-4.757 11.13 0 8.796 5.924 17.593 19.208 17.593 3.77 0 10.862-.718 16.965-7zM689.134 57.112V7.295h-11.668v49.817H664v10.053h38.597V57.112zM741.742 29.375l-8.526 21.542-8.529-21.542zm3.412-9.514H721.01l-5.297-12.567h-12.657l25.761 59.871h9.156l25.043-59.87H750.45zM772.254 7.294v59.871h8.079l36.442-39.944v39.944h11.67V7.295h-8.08l-36.443 40.032V7.294zM65.327 37.185c0 12.117-8.258 20.734-19.927 20.734s-19.927-8.617-19.927-20.734c0-12.118 8.258-20.645 19.927-20.645 11.67 0 19.927 8.527 19.927 20.645m12.028 0c0-18.222-13.105-31.237-31.955-31.237-18.85 0-31.955 13.015-31.955 31.237 0 18.22 13.105 31.327 31.955 31.327 18.85 0 31.955-13.106 31.955-31.327M49.026 77.778h-6.411v23.079h6.411zM25.632 71.678L16.657 90.04l5.76 2.814 8.975-18.361zM66.01 71.678l-5.76 2.815 8.975 18.36 5.76-2.813z"/></g></svg>